<?xml version="1.0" standalone="no"?>
<!DOCTYPE svg PUBLIC "-//W3C//DTD SVG 20010904//EN"
 "http://www.w3.org/TR/2001/REC-SVG-20010904/DTD/svg10.dtd">
<svg version="1.0" xmlns="http://www.w3.org/2000/svg"
 width="386.000000pt" height="386.000000pt" viewBox="0 0 386.000000 386.000000"
 preserveAspectRatio="xMidYMid meet">
<metadata>
Created by potrace 1.14, written by Peter Selinger 2001-2017
</metadata>
<g transform="translate(0.000000,386.000000) scale(0.100000,-0.100000)"
fill="#000000" stroke="none">
<path d="M1956 3342 c-2 -2 -19 -6 -37 -9 -19 -3 -45 -11 -59 -18 -14 -7 -34
-15 -45 -17 -11 -1 -32 -15 -47 -30 -22 -22 -30 -25 -40 -15 -18 16 -29 18
-117 17 -89 0 -104 -2 -123 -17 -7 -6 -25 -14 -40 -18 -58 -15 -271 -251 -341
-379 -15 -27 -27 -55 -27 -62 0 -8 -11 -32 -25 -54 -14 -22 -25 -43 -25 -48 0
-4 -16 -39 -35 -77 -19 -38 -32 -72 -29 -77 3 -4 0 -8 -7 -8 -7 0 -10 -3 -6
-6 3 -4 0 -19 -9 -35 -8 -16 -14 -31 -14 -34 0 -3 0 -6 -1 -7 -1 -2 -3 -16 -4
-33 -7 -65 -16 -122 -25 -174 -6 -30 -10 -71 -10 -92 0 -40 -22 -55 -54 -37
-9 5 -16 5 -16 1 0 -4 -43 -8 -95 -8 -52 0 -94 -3 -92 -6 1 -3 -3 -12 -10 -20
-12 -15 -12 -43 0 -55 4 -4 2 -13 -4 -20 -9 -11 -6 -16 12 -23 13 -5 27 -7 32
-4 4 2 6 -1 5 -9 -2 -7 2 -12 8 -11 6 1 12 -17 13 -45 1 -28 8 -53 18 -62 9
-8 13 -9 9 -2 -4 6 -2 12 3 12 6 0 11 -5 11 -10 0 -6 3 -9 8 -9 25 4 32 -4 32
-36 0 -28 4 -35 19 -35 11 0 23 -5 26 -10 4 -7 11 -7 18 -2 10 7 72 9 72 2 0
-1 16 -3 35 -3 32 -2 35 -5 38 -34 3 -31 2 -32 -40 -35 -42 -3 -43 -4 -46 -40
-3 -38 24 -140 51 -191 8 -16 27 -42 42 -59 l27 -30 -18 -35 c-11 -19 -27 -43
-37 -54 -28 -31 -193 -273 -223 -329 -10 -19 -22 -37 -25 -40 -13 -10 -98
-198 -99 -215 0 -3 -7 -19 -15 -35 -8 -16 -15 -32 -15 -35 -1 -3 -2 -10 -4
-17 -2 -7 -9 -33 -16 -58 -7 -25 -16 -56 -21 -70 -4 -14 -13 -44 -19 -68 -6
-24 -14 -50 -17 -58 -4 -11 4 -14 34 -14 32 0 39 3 40 21 1 12 6 26 11 31 6 6
8 -2 6 -21 l-4 -31 1540 0 1540 0 0 43 c0 24 -4 47 -8 53 -5 5 -15 29 -22 54
-8 25 -26 61 -42 81 -15 20 -28 40 -28 43 0 3 -22 28 -50 54 -48 46 -49 49
-51 109 -2 53 -8 71 -39 120 -20 32 -44 64 -54 72 -21 17 -44 59 -49 92 -14
75 -30 109 -71 152 -39 40 -57 78 -61 129 0 3 -3 10 -7 14 -13 12 -9 48 11
105 10 30 18 56 19 59 0 3 5 23 11 45 14 55 22 136 13 149 -12 20 -10 119 4
158 7 21 13 42 14 46 0 11 24 9 32 -3 5 -6 8 -6 8 3 0 6 4 12 8 12 5 0 6 -20
2 -45 -4 -28 -3 -48 3 -52 6 -3 7 -1 3 5 -4 7 -3 12 3 12 5 0 12 -6 14 -12 4
-10 6 -10 6 0 1 7 5 11 10 7 6 -3 8 6 5 21 -3 14 -1 23 5 20 5 -3 4 5 -2 19
-7 13 -14 20 -15 15 -2 -6 -12 0 -21 12 -19 23 -17 58 3 58 6 0 5 4 -3 9 -8 5
-24 8 -37 6 -22 -2 -24 1 -25 49 -1 64 -7 98 -19 110 -6 6 -10 18 -10 28 0 10
-9 32 -19 50 -11 17 -18 35 -15 40 3 4 0 8 -6 8 -6 0 -8 5 -5 10 3 6 2 10 -2
10 -5 0 -14 12 -21 28 -7 15 -30 59 -52 97 -22 39 -40 78 -40 88 0 9 -4 25 -9
35 -14 26 -38 84 -46 112 -5 14 -19 43 -33 65 -14 22 -24 42 -23 44 2 2 -4 8
-13 13 -9 5 -16 15 -16 22 0 7 -10 26 -22 42 -13 16 -22 30 -20 32 7 7 -89
101 -110 108 -13 4 -36 19 -51 34 -15 15 -38 32 -50 37 -82 39 -140 63 -152
63 -7 0 -17 5 -20 10 -3 6 -13 10 -22 10 -9 0 -99 41 -199 91 -163 82 -191 93
-254 98 -39 4 -72 5 -74 3z m941 -2944 c-3 -7 -5 -2 -5 12 0 14 2 19 5 13 2
-7 2 -19 0 -25z"/>
</g>
</svg>
